<svg xmlns="http://www.w3.org/2000/svg" xmlns:xlink="http://www.w3.org/1999/xlink" width="1024" zoomAndPan="magnify" viewBox="0 0 768 767.999994" height="1024" preserveAspectRatio="xMidYMid meet" version="1.0"><defs><clipPath id="bd5358d3be"><path d="M 230.398438 244 L 537.898438 244 L 537.898438 524 L 230.398438 524 Z M 230.398438 244 " clip-rule="nonzero"/></clipPath></defs><rect x="-76.8" width="921.6" fill="#ffffff" y="-76.799999" height="921.599993" fill-opacity="1"/><rect x="-76.8" width="921.6" fill="#0081cc" y="-76.799999" height="921.599993" fill-opacity="1"/><path fill="#f9f9f9" d="M 447.257812 371.074219 C 446.667969 370.378906 446.078125 369.734375 445.382812 369.09375 C 442.703125 366.410156 439.808594 364.160156 436.699219 362.390625 C 420.347656 352.953125 399.597656 355.6875 386.195312 369.09375 C 378.261719 376.972656 373.917969 387.480469 373.917969 398.6875 C 373.917969 409.890625 378.261719 420.34375 386.195312 428.28125 C 388.179688 430.261719 390.324219 432.03125 392.523438 433.535156 C 395.792969 435.679688 399.332031 437.394531 403.03125 438.574219 C 407.265625 439.914062 411.554688 440.609375 415.84375 440.609375 C 426.78125 440.609375 437.449219 436.320312 445.4375 428.332031 C 461.039062 412.679688 461.789062 387.480469 447.257812 371.074219 Z M 439.003906 387.589844 L 413.109375 413.535156 C 412.574219 414.074219 411.875 414.339844 411.179688 414.339844 C 410.480469 414.339844 409.785156 414.074219 409.300781 413.535156 L 392.574219 396.808594 C 391.503906 395.789062 391.503906 394.074219 392.574219 393.003906 C 393.59375 391.984375 395.308594 391.984375 396.382812 393.003906 L 411.179688 407.851562 L 435.25 383.835938 C 436.269531 382.761719 437.984375 382.761719 439.003906 383.835938 C 440.074219 384.855469 440.074219 386.570312 439.003906 387.589844 Z M 439.003906 387.589844 " fill-opacity="1" fill-rule="nonzero"/><g clip-path="url(#bd5358d3be)"><path fill="#f9f9f9" d="M 486.71875 449.5625 C 485.753906 448.597656 484.464844 448.0625 483.070312 448.0625 C 482.160156 448.0625 481.195312 448.4375 480.339844 449.027344 L 464.253906 432.945312 C 480.980469 409.570312 478.40625 377.1875 457.875 356.652344 C 448.652344 347.539062 437.234375 341.804688 424.6875 339.925781 L 424.6875 293.554688 C 424.6875 293.445312 424.636719 293.339844 424.636719 293.230469 C 424.582031 293.070312 424.582031 292.964844 424.527344 292.855469 C 424.421875 292.425781 424.261719 292.050781 423.9375 291.730469 C 423.9375 291.730469 423.9375 291.675781 423.886719 291.625 L 406.945312 274.683594 C 397.667969 265.351562 389.304688 257.042969 377.671875 245.410156 C 377.671875 245.410156 377.617188 245.410156 377.5625 245.355469 C 377.296875 245.089844 376.921875 244.925781 376.492188 244.820312 C 376.386719 244.765625 376.277344 244.765625 376.117188 244.714844 C 376.007812 244.714844 375.902344 244.660156 375.796875 244.660156 L 232.917969 244.660156 C 231.472656 244.660156 230.238281 245.839844 230.238281 247.339844 L 230.238281 520.652344 C 230.238281 522.152344 231.472656 523.332031 232.917969 523.332031 L 422.007812 523.332031 C 423.507812 523.332031 424.6875 522.152344 424.6875 520.652344 L 424.6875 457.335938 C 433.855469 455.996094 442.488281 452.511719 450.046875 447.152344 L 466.078125 463.179688 C 465.542969 464.039062 465.164062 464.949219 465.164062 465.96875 C 465.164062 467.363281 465.703125 468.59375 466.667969 469.5625 L 512.988281 515.933594 C 515.667969 518.5625 519.207031 520.0625 523.011719 520.0625 C 526.820312 520.0625 530.410156 518.5625 533.039062 515.933594 C 538.558594 510.414062 538.558594 501.40625 533.039062 495.882812 Z M 419.328125 517.972656 L 235.601562 517.972656 L 235.601562 250.019531 L 373.113281 250.019531 L 373.113281 293.554688 C 373.113281 295.054688 374.292969 296.234375 375.796875 296.234375 L 419.328125 296.234375 L 419.328125 339.335938 C 419.058594 339.285156 418.792969 339.335938 418.523438 339.335938 C 416.378906 339.230469 414.234375 339.175781 411.984375 339.335938 C 408.390625 339.550781 404.851562 340.089844 401.421875 340.945312 C 391.019531 343.574219 381.476562 348.933594 373.757812 356.652344 C 372.257812 358.15625 370.863281 359.710938 369.523438 361.371094 C 361 371.878906 356.386719 384.855469 356.332031 398.523438 C 356.332031 414.449219 362.554688 429.460938 373.8125 440.71875 C 384.105469 451.011719 397.667969 457.121094 412.035156 458.035156 C 413.269531 458.085938 414.503906 458.140625 415.683594 458.140625 C 416.378906 458.140625 416.96875 458.035156 417.613281 458.035156 C 418.203125 458.035156 418.792969 458.085938 419.328125 458.035156 Z M 451.546875 439.324219 C 450.636719 440.074219 449.726562 440.824219 448.761719 441.574219 C 440.933594 447.632812 431.550781 451.386719 421.6875 452.457031 C 418.683594 452.78125 415.574219 452.886719 412.359375 452.671875 C 399.277344 451.867188 386.945312 446.292969 377.617188 436.910156 C 367.378906 426.671875 361.695312 413.054688 361.695312 398.578125 C 361.695312 396.753906 361.800781 394.988281 361.964844 393.21875 C 363.195312 380.832031 368.609375 369.304688 377.5625 360.40625 C 382.226562 355.742188 387.644531 352.042969 393.539062 349.363281 C 399.382812 346.683594 405.765625 345.074219 412.304688 344.699219 C 413.699219 344.589844 414.984375 344.589844 416.324219 344.589844 C 418.148438 344.644531 419.972656 344.699219 421.6875 344.914062 C 434.015625 346.253906 445.167969 351.613281 454.066406 360.40625 C 473.316406 379.652344 475.246094 410.265625 458.625 431.65625 L 458.570312 431.710938 C 458.035156 432.460938 457.445312 433.210938 456.75 434.015625 C 455.945312 434.980469 455.035156 435.945312 454.066406 436.964844 C 453.210938 437.769531 452.351562 438.574219 451.546875 439.324219 Z M 454.390625 443.933594 L 454.710938 443.613281 C 455.835938 442.648438 456.855469 441.734375 457.875 440.71875 C 458.945312 439.589844 459.964844 438.519531 460.824219 437.5 L 461.039062 437.285156 L 476.371094 452.671875 L 469.777344 459.265625 Z M 529.285156 512.128906 C 525.960938 515.453125 520.117188 515.453125 516.792969 512.128906 L 470.417969 466.183594 L 471.652344 464.949219 L 482.054688 454.550781 C 482.160156 454.441406 482.214844 454.335938 482.269531 454.226562 L 483.019531 453.476562 L 529.285156 499.691406 C 532.714844 503.121094 532.714844 508.695312 529.285156 512.128906 Z M 529.285156 512.128906 " fill-opacity="1" fill-rule="nonzero"/></g><path fill="#f9f9f9" d="M 251.464844 268.617188 L 294.523438 268.617188 C 296.003906 268.617188 297.207031 267.417969 297.207031 265.9375 C 297.207031 264.457031 296.003906 263.257812 294.523438 263.257812 L 251.464844 263.257812 C 249.984375 263.257812 248.785156 264.457031 248.785156 265.9375 C 248.785156 267.417969 249.984375 268.617188 251.464844 268.617188 Z M 251.464844 268.617188 " fill-opacity="1" fill-rule="nonzero"/><path fill="#f9f9f9" d="M 251.464844 296.222656 L 294.523438 296.222656 C 296.003906 296.222656 297.207031 295.023438 297.207031 293.542969 C 297.207031 292.0625 296.003906 290.863281 294.523438 290.863281 L 251.464844 290.863281 C 249.984375 290.863281 248.785156 292.0625 248.785156 293.542969 C 248.785156 295.023438 249.984375 296.222656 251.464844 296.222656 Z M 251.464844 296.222656 " fill-opacity="1" fill-rule="nonzero"/><path fill="#f9f9f9" d="M 251.464844 323.828125 L 403.476562 323.828125 C 404.953125 323.828125 406.15625 322.625 406.15625 321.148438 C 406.15625 319.667969 404.953125 318.464844 403.476562 318.464844 L 251.464844 318.464844 C 249.984375 318.464844 248.785156 319.667969 248.785156 321.148438 C 248.785156 322.625 249.984375 323.828125 251.464844 323.828125 Z M 251.464844 323.828125 " fill-opacity="1" fill-rule="nonzero"/><path fill="#f9f9f9" d="M 251.464844 351.433594 L 363.355469 351.433594 C 364.835938 351.433594 366.039062 350.230469 366.039062 348.75 C 366.039062 347.273438 364.835938 346.070312 363.355469 346.070312 L 251.464844 346.070312 C 249.984375 346.070312 248.785156 347.273438 248.785156 348.75 C 248.785156 350.230469 249.984375 351.433594 251.464844 351.433594 Z M 251.464844 351.433594 " fill-opacity="1" fill-rule="nonzero"/><path fill="#f9f9f9" d="M 346.0625 373.675781 L 251.464844 373.675781 C 249.984375 373.675781 248.785156 374.875 248.785156 376.355469 C 248.785156 377.835938 249.984375 379.039062 251.464844 379.039062 L 346.0625 379.039062 C 347.542969 379.039062 348.742188 377.835938 348.742188 376.355469 C 348.742188 374.875 347.542969 373.675781 346.0625 373.675781 Z M 346.0625 373.675781 " fill-opacity="1" fill-rule="nonzero"/></svg>